<svg t="1748699005527" class="icon" viewBox="0 0 1024 1024" version="1.1" xmlns="http://www.w3.org/2000/svg" p-id="15625" width="16" height="16"><path d="M976.486352 493.403868c0 272.499381-176.363574 447.547976-448.862955 447.547976-182.756057 0-357.926928-53.507227-443.194112-201.155743C42.560426 667.291833 18.602145 583.145188 18.602145 493.403868 18.602145 220.904487 239.506632 0 512.006014 0c199.24742 0 370.910344 118.101574 448.802819 288.120774 28.63688 62.507619 15.677519 132.031133 15.677519 205.283094z" fill="#F5415F" p-id="15626"></path><path d="M960.786783 288.130796l-0.128291-0.272617c-11.010947-23.76384-46.483314-15.926083-46.425182 10.317375l0.002004 1.110516c0 61.397103-11.221424 120.168256-31.721869 174.385091-14.134022 37.382695-69.463378 27.454201-69.463378-12.512348 0-17.623929-6.332347-34.157388-17.158876-47.066635 10.842565-13.033529 17.05063-29.637147 16.978467-47.146817l-0.434986-103.991606c0-31.954397-18.05691-59.677206-44.514854-73.56467-0.605372-0.224509-16.028314-9.483486-38.533302-9.483486v190.746159L718.032793 374.849268l-0.182413 0.104236-11.642377-4.299742V179.907603c-1.912333 0.308699-17.756229-1.026325-38.583416 9.509545-26.42988 13.895482-44.46474 41.60426-44.46474 73.538611v114.51144c0 17.539738 6.266197 33.999029 16.996507 46.882218a73.227907 73.227907 0 0 0-17.048626 46.836113l-0.254576 207.247545c-0.056127 46.10646-31.268843 86.211323-75.849848 97.971968-0.673526 0.178404-1.347052 0.352799-2.022582 0.529199-64.189429 16.637695-126.823334-31.78802-126.823334-98.098254v-196.296735h-33.417712V445.168585c0-16.956417 5.490439-33.610148 16.274873-46.695795a75.090126 75.090126 0 0 0 17.13883-47.54973l0.004009-0.004009V156.524626l-64.247561 0.1764-3.151139 0.41494c-33.419717 4.389946-58.408331 32.874481-58.408332 66.582852v127.011761c0 16.932362 5.452353 33.586093 16.232778 46.645681a75.09614 75.09614 0 0 1 17.184934 47.812325v37.370668h-33.417712v135.314572c0 81.82739-92.665946 130.1188-159.112489 82.364607-0.863957-0.619403-1.723906-1.242816-2.583854-1.870237-27.710782-20.187738-63.339504 11.7406-46.19466 41.431869 86.159204 149.210054 246.62075 247.027672 427.548665 247.027672 68.441062 0 133.620734-13.943591 192.870973-39.130655a501.756793 501.756793 0 0 0 25.20711-11.594268c151.298786-74.677191 256.477081-223.017274 273.014549-394.884661 8.63356-89.865602-7.380722-176.846668-42.313867-253.067356zM730.003915 683.78921a494.582539 494.582539 0 0 1-24.407298 18.467841V467.974254l11.896954-4.393955 0.244554-0.136309 12.267795 4.530264V683.78921z" fill="#CD2846" p-id="15627"></path><path d="M656.986485 886.239887h-83.048156l0.559267-454.738266a73.265993 73.265993 0 0 1 37.196273-63.68228l57.730796-32.653982 11.355728-4.193501V140.223694c45.865915 0 83.048156 37.182241 83.048156 83.048156l0.432981 103.991606a73.267998 73.267998 0 0 1-37.492945 64.245557l-57.88715 32.387377-11.896955 4.393955v457.949542z" fill="#05ACFF" p-id="15628"></path><path d="M527.625401 1024c-71.309561 0-129.325002-58.015441-129.325002-129.325002s58.015441-129.322997 129.325002-129.322997 129.325002 58.013437 129.325002 129.322997-58.015441 129.325002-129.325002 129.325002z m0-175.599843c-25.517814 0-46.274841 20.757028-46.274841 46.274841s20.759032 46.276846 46.274841 46.276846c25.517814 0 46.276846-20.759032 46.276846-46.276846s-20.761037-46.274841-46.276846-46.274841z" fill="#2896FF" p-id="15629"></path><path d="M764.441939 886.239887h-83.048156V428.29235l-58.961585-21.777339a73.267998 73.267998 0 0 1-47.882484-68.729716v-114.513445c0-45.865915 37.182241-83.048156 83.048156-83.048156v190.74616l58.961585 21.777339a73.267998 73.267998 0 0 1 47.882484 68.729716z" fill="#05CDFF" p-id="15630"></path><path d="M810.754866 1024c-71.309561 0-129.325002-58.015441-129.325001-129.325002s58.015441-129.322997 129.325001-129.322997 129.325002 58.013437 129.325002 129.322997-58.015441 129.325002-129.325002 129.325002z m0-175.599843c-25.517814 0-46.276846 20.757028-46.276845 46.274841s20.759032 46.276846 46.276845 46.276846 46.276846-20.759032 46.276846-46.276846-20.761037-46.274841-46.276846-46.274841z" fill="#05ACFF" p-id="15631"></path><path d="M657.599875 140.223694c-13.931564 0-27.051288 3.447811-38.583416 9.509545v180.81967h38.583416z" fill="#FFFFFF" p-id="15632"></path><path d="M680.780393 140.223694v190.329215h38.533302V149.70718a82.669298 82.669298 0 0 0-38.533302-9.483486z" fill="#05CDFF" p-id="15633"></path><path d="M337.422473 180.963997l-32.124783-63.94688-3.151139 0.41494c-33.421721 4.389946-58.408331 32.876486-58.408332 66.582852v127.011761a75.104158 75.104158 0 0 0 16.707854 47.229003 75.104158 75.104158 0 0 1 16.707854 47.229003v107.10065h58.971607v-107.10065a75.104158 75.104158 0 0 1 16.707854-47.229003 75.104158 75.104158 0 0 0 16.707854-47.229003z" fill="#FFFFFF" p-id="15634"></path><path d="M369.543246 311.237147l0.00401-0.004009V116.840717l-64.247561 0.1764v129.976478c0 35.480385 28.761162 64.243552 64.243551 64.243552z" fill="#E8D6FF" p-id="15635"></path><path d="M306.642737 876.876674c-34.740709 0-62.904518-28.163809-62.904518-62.904518V442.855344h125.809037v371.118816c0 34.738705-28.163809 62.902514-62.904519 62.902514z" fill="#FFC305" p-id="15636"></path><path d="M274.519959 742.514259c-16.998512 0-30.779735-13.781223-30.779735-30.779735V442.855344h61.559471v268.87918c0 16.998512-13.781223 30.779735-30.779736 30.779735z" fill="#FFDC64" p-id="15637"></path></svg>